<svg width="64" height="64" viewBox="0 0 64 64" fill="none" xmlns="http://www.w3.org/2000/svg">
<g clip-path="url(#clip0_78_30)">
<rect width="64" height="64" fill="#ED1C24"/>
<path d="M32 54.332C27.6053 54.332 24.2133 53.0307 21.824 50.428C19.4773 47.7827 18.304 44.156 18.304 39.548V13.628H25.472H26.048V14.204C25.8347 14.46 25.6853 14.7373 25.6 15.036C25.5573 15.3347 25.536 15.8467 25.536 16.572V39.612C25.536 42.3427 26.0053 44.4973 26.944 46.076C27.9253 47.6547 29.632 48.444 32.064 48.444C34.5387 48.444 36.2667 47.6547 37.248 46.076C38.2293 44.4547 38.72 42.236 38.72 39.42V13.628H45.76V39.356C45.76 42.7693 45.184 45.5853 44.032 47.804C42.88 50.0227 41.2587 51.6653 39.168 52.732C37.12 53.7987 34.7307 54.332 32 54.332Z" fill="white"/>
</g>
<defs>
<clipPath id="clip0_78_30">
<rect width="64" height="64" fill="white"/>
</clipPath>
</defs>
</svg>
